<svg width="22" height="27" viewBox="0 0 22 27" fill="none" xmlns="http://www.w3.org/2000/svg">
<g filter="url(#filter0_d_902_4392)">
<path d="M15.4531 3.14453C14.2461 3.14453 13.2656 4.125 13.2656 5.33203C13.2656 6.31055 13.9121 7.14062 14.7988 7.41992V9.29297L7.25 11.7656V6.21289C8.11328 5.91992 8.73438 5.10156 8.73438 4.14062C8.73438 2.93359 7.75391 1.95312 6.54688 1.95312C5.33984 1.95312 4.35938 2.93359 4.35938 4.14062C4.35938 5.10156 4.98047 5.91797 5.84375 6.21289V13.7891C4.98047 14.082 4.35938 14.9004 4.35938 15.8613C4.35938 17.0684 5.33984 18.0488 6.54688 18.0488C7.75391 18.0488 8.73438 17.0684 8.73438 15.8613C8.73438 14.9004 8.11328 14.084 7.25 13.7891V13.2461L15.5215 10.5371C15.7201 10.4725 15.8931 10.3466 16.0156 10.1774C16.1381 10.0082 16.2038 9.80457 16.2031 9.5957V7.38672C17.041 7.07812 17.6406 6.27344 17.6406 5.33203C17.6406 4.125 16.6602 3.14453 15.4531 3.14453ZM5.60938 4.14062C5.61438 3.8953 5.71536 3.66171 5.89063 3.48998C6.0659 3.31825 6.3015 3.22207 6.54688 3.22207C6.79225 3.22207 7.02785 3.31825 7.20312 3.48998C7.37839 3.66171 7.47937 3.8953 7.48438 4.14062C7.47937 4.38595 7.37839 4.61954 7.20312 4.79127C7.02785 4.963 6.79225 5.05918 6.54688 5.05918C6.3015 5.05918 6.0659 4.963 5.89063 4.79127C5.71536 4.61954 5.61438 4.38595 5.60938 4.14062ZM7.48438 15.8594C7.47937 16.1047 7.37839 16.3383 7.20312 16.51C7.02785 16.6817 6.79225 16.7779 6.54688 16.7779C6.3015 16.7779 6.0659 16.6817 5.89063 16.51C5.71536 16.3383 5.61438 16.1047 5.60938 15.8594C5.61438 15.614 5.71536 15.3805 5.89063 15.2087C6.0659 15.037 6.3015 14.9408 6.54688 14.9408C6.79225 14.9408 7.02785 15.037 7.20312 15.2087C7.37839 15.3805 7.47937 15.614 7.48438 15.8594ZM15.4531 6.26953C15.2078 6.26452 14.9742 6.16355 14.8025 5.98828C14.6308 5.81301 14.5346 5.57741 14.5346 5.33203C14.5346 5.08665 14.6308 4.85105 14.8025 4.67578C14.9742 4.50051 15.2078 4.39954 15.4531 4.39453C15.6985 4.39954 15.932 4.50051 16.1038 4.67578C16.2755 4.85105 16.3717 5.08665 16.3717 5.33203C16.3717 5.57741 16.2755 5.81301 16.1038 5.98828C15.932 6.16355 15.6985 6.26452 15.4531 6.26953Z" fill="#5459EA"/>
</g>
<defs>
<filter id="filter0_d_902_4392" x="-3" y="0" width="28" height="28" filterUnits="userSpaceOnUse" color-interpolation-filters="sRGB">
<feFlood flood-opacity="0" result="BackgroundImageFix"/>
<feColorMatrix in="SourceAlpha" type="matrix" values="0 0 0 0 0 0 0 0 0 0 0 0 0 0 0 0 0 0 127 0" result="hardAlpha"/>
<feOffset dy="4"/>
<feGaussianBlur stdDeviation="2"/>
<feComposite in2="hardAlpha" operator="out"/>
<feColorMatrix type="matrix" values="0 0 0 0 0 0 0 0 0 0 0 0 0 0 0 0 0 0 0.25 0"/>
<feBlend mode="normal" in2="BackgroundImageFix" result="effect1_dropShadow_902_4392"/>
<feBlend mode="normal" in="SourceGraphic" in2="effect1_dropShadow_902_4392" result="shape"/>
</filter>
</defs>
</svg>
