<svg width="41" height="40" viewBox="0 0 41 40" fill="none" xmlns="http://www.w3.org/2000/svg">
<g id="majesticons:door-exit">
<g id="Group">
<path id="Vector" fill-rule="evenodd" clip-rule="evenodd" d="M17.6258 3.02506C18.3724 2.80111 19.1609 2.75479 19.9285 2.88978C20.6961 3.02476 21.4215 3.33733 22.0469 3.80252C22.6722 4.26772 23.1801 4.87265 23.5301 5.56905C23.88 6.26544 24.0624 7.034 24.0625 7.81339V32.1867C24.0624 32.9661 23.88 33.7347 23.5301 34.4311C23.1801 35.1275 22.6722 35.7324 22.0469 36.1976C21.4215 36.6628 20.6961 36.9753 19.9285 37.1103C19.1609 37.2453 18.3724 37.199 17.6258 36.9751L7.62583 33.9751C6.596 33.6661 5.69318 33.0335 5.0513 32.1709C4.40942 31.3084 4.06268 30.2619 4.0625 29.1867V10.8134C4.06268 9.73822 4.40942 8.69174 5.0513 7.8292C5.69318 6.96665 6.596 6.33399 7.62583 6.02506L17.6258 3.02506ZM25.7292 6.66672C25.7292 6.22469 25.9048 5.80077 26.2173 5.48821C26.5299 5.17565 26.9538 5.00006 27.3958 5.00006H32.3958C33.7219 5.00006 34.9937 5.52684 35.9314 6.46452C36.869 7.4022 37.3958 8.67397 37.3958 10.0001V11.6667C37.3958 12.1088 37.2202 12.5327 36.9077 12.8452C36.5951 13.1578 36.1712 13.3334 35.7292 13.3334C35.2871 13.3334 34.8632 13.1578 34.5507 12.8452C34.2381 12.5327 34.0625 12.1088 34.0625 11.6667V10.0001C34.0625 9.55803 33.8869 9.13411 33.5743 8.82154C33.2618 8.50898 32.8379 8.33339 32.3958 8.33339H27.3958C26.9538 8.33339 26.5299 8.15779 26.2173 7.84523C25.9048 7.53267 25.7292 7.10875 25.7292 6.66672ZM35.7292 26.6667C36.1712 26.6667 36.5951 26.8423 36.9077 27.1549C37.2202 27.4674 37.3958 27.8914 37.3958 28.3334V30.0001C37.3958 31.3261 36.869 32.5979 35.9314 33.5356C34.9937 34.4733 33.7219 35.0001 32.3958 35.0001H27.3958C26.9538 35.0001 26.5299 34.8245 26.2173 34.5119C25.9048 34.1993 25.7292 33.7754 25.7292 33.3334C25.7292 32.8914 25.9048 32.4674 26.2173 32.1549C26.5299 31.8423 26.9538 31.6667 27.3958 31.6667H32.3958C32.8379 31.6667 33.2618 31.4911 33.5743 31.1786C33.8869 30.866 34.0625 30.4421 34.0625 30.0001V28.3334C34.0625 27.8914 34.2381 27.4674 34.5507 27.1549C34.8632 26.8423 35.2871 26.6667 35.7292 26.6667ZM15.7292 18.3334C15.2871 18.3334 14.8632 18.509 14.5507 18.8215C14.2381 19.1341 14.0625 19.558 14.0625 20.0001C14.0625 20.4421 14.2381 20.866 14.5507 21.1786C14.8632 21.4911 15.2871 21.6667 15.7292 21.6667H15.7308C16.1729 21.6667 16.5968 21.4911 16.9093 21.1786C17.2219 20.866 17.3975 20.4421 17.3975 20.0001C17.3975 19.558 17.2219 19.1341 16.9093 18.8215C16.5968 18.509 16.1729 18.3334 15.7308 18.3334H15.7292Z" fill="#292D32"/>
<path id="Vector_2" d="M35.7279 20.0001L32.3945 23.3334M27.3945 20.0001H35.7279H27.3945ZM35.7279 20.0001L32.3945 16.6667L35.7279 20.0001Z" stroke="#3366FF" stroke-width="3.33333" stroke-linecap="round" stroke-linejoin="round"/>
</g>
</g>
</svg>
