<svg width="558" height="290" viewBox="0 0 558 290" fill="none" xmlns="http://www.w3.org/2000/svg">
<rect x="1" width="556" height="1" fill="#F0F0F0"/>
<rect x="1" y="82" width="556" height="1" fill="#F0F0F0"/>
<rect x="1" y="164" width="556" height="1" fill="#F0F0F0"/>
<rect x="1" y="41" width="556" height="1" fill="#F0F0F0"/>
<rect x="1" y="123" width="556" height="1" fill="#F0F0F0"/>
<rect x="1" y="205" width="556" height="1" fill="#F0F0F0"/>
<g filter="url(#filter0_b_1548_382)">
<rect x="324" y="41" width="46" height="249" fill="url(#paint0_linear_1548_382)"/>
</g>
<path d="M3.96 262.08C3.352 262.08 2.78133 261.941 2.248 261.664C1.72533 261.376 1.304 260.981 0.984 260.48L1.48 259.936C1.78933 260.395 2.152 260.747 2.568 260.992C2.99467 261.227 3.45867 261.344 3.96 261.344C4.70667 261.344 5.26133 261.131 5.624 260.704C5.99733 260.267 6.184 259.6 6.184 258.704V251.536H2.056V250.8H7V258.704C7 259.824 6.744 260.667 6.232 261.232C5.72 261.797 4.96267 262.08 3.96 262.08ZM13.3714 253.584C14.406 253.584 15.2007 253.851 15.7554 254.384C16.31 254.907 16.5874 255.68 16.5874 256.704V262H15.8194V260.512C15.5527 261.003 15.1634 261.387 14.6514 261.664C14.1394 261.931 13.526 262.064 12.8114 262.064C11.8834 262.064 11.1474 261.845 10.6034 261.408C10.07 260.971 9.80338 260.395 9.80338 259.68C9.80338 258.987 10.0487 258.427 10.5394 258C11.0407 257.563 11.8354 257.344 12.9234 257.344H15.7874V256.672C15.7874 255.893 15.574 255.301 15.1474 254.896C14.7314 254.491 14.118 254.288 13.3074 254.288C12.7527 254.288 12.2194 254.384 11.7074 254.576C11.206 254.768 10.7794 255.024 10.4274 255.344L10.0274 254.768C10.4434 254.395 10.9447 254.107 11.5314 253.904C12.118 253.691 12.7314 253.584 13.3714 253.584ZM12.9234 261.408C13.6167 261.408 14.2034 261.248 14.6834 260.928C15.174 260.608 15.542 260.144 15.7874 259.536V257.968H12.9394C12.118 257.968 11.5207 258.117 11.1474 258.416C10.7847 258.715 10.6034 259.125 10.6034 259.648C10.6034 260.192 10.806 260.624 11.2114 260.944C11.6167 261.253 12.1874 261.408 12.9234 261.408ZM23.9635 253.584C25.0088 253.584 25.8355 253.888 26.4435 254.496C27.0515 255.104 27.3555 255.979 27.3555 257.12V262H26.5555V257.184C26.5555 256.245 26.3155 255.531 25.8355 255.04C25.3662 254.549 24.7048 254.304 23.8515 254.304C22.8702 254.304 22.0968 254.597 21.5315 255.184C20.9662 255.771 20.6835 256.56 20.6835 257.552V262H19.8835V253.648H20.6515V255.456C20.9395 254.869 21.3662 254.411 21.9315 254.08C22.5075 253.749 23.1848 253.584 23.9635 253.584Z" fill="#2E3A59"/>
<path d="M49.4047 251.536V256.32H55.3727V257.056H49.4047V262H48.5887V250.8H56.0767V251.536H49.4047ZM65.1856 258.016H58.0016C58.0229 258.667 58.1883 259.248 58.4976 259.76C58.8069 260.261 59.2229 260.651 59.7456 260.928C60.2789 261.205 60.8763 261.344 61.5376 261.344C62.0816 261.344 62.5829 261.248 63.0416 261.056C63.5109 260.853 63.9003 260.56 64.2096 260.176L64.6736 260.704C64.3109 261.141 63.8523 261.477 63.2976 261.712C62.7536 261.947 62.1616 262.064 61.5216 262.064C60.6896 262.064 59.9483 261.883 59.2976 261.52C58.6469 261.157 58.1349 260.656 57.7616 260.016C57.3989 259.376 57.2176 258.645 57.2176 257.824C57.2176 257.013 57.3883 256.288 57.7296 255.648C58.0816 254.997 58.5616 254.491 59.1696 254.128C59.7776 253.765 60.4603 253.584 61.2176 253.584C61.9749 253.584 62.6523 253.765 63.2496 254.128C63.8576 254.48 64.3323 254.976 64.6736 255.616C65.0256 256.256 65.2016 256.981 65.2016 257.792L65.1856 258.016ZM61.2176 254.288C60.6309 254.288 60.1029 254.421 59.6336 254.688C59.1643 254.944 58.7856 255.312 58.4976 255.792C58.2203 256.261 58.0603 256.795 58.0176 257.392H64.4176C64.3856 256.795 64.2256 256.261 63.9376 255.792C63.6496 255.323 63.2709 254.955 62.8016 254.688C62.3323 254.421 61.8043 254.288 61.2176 254.288ZM71.8685 253.584C72.6471 253.584 73.3511 253.765 73.9805 254.128C74.6098 254.48 75.1005 254.981 75.4525 255.632C75.8151 256.272 75.9965 257.003 75.9965 257.824C75.9965 258.645 75.8151 259.376 75.4525 260.016C75.1005 260.656 74.6098 261.157 73.9805 261.52C73.3511 261.883 72.6471 262.064 71.8685 262.064C71.1218 262.064 70.4445 261.888 69.8365 261.536C69.2391 261.173 68.7751 260.672 68.4445 260.032V262H67.6765V250.128H68.4765V255.552C68.8071 254.933 69.2711 254.453 69.8685 254.112C70.4658 253.76 71.1325 253.584 71.8685 253.584ZM71.8205 261.344C72.4605 261.344 73.0365 261.195 73.5485 260.896C74.0605 260.597 74.4605 260.181 74.7485 259.648C75.0471 259.115 75.1965 258.507 75.1965 257.824C75.1965 257.141 75.0471 256.533 74.7485 256C74.4605 255.467 74.0605 255.051 73.5485 254.752C73.0365 254.453 72.4605 254.304 71.8205 254.304C71.1805 254.304 70.6045 254.453 70.0925 254.752C69.5911 255.051 69.1911 255.467 68.8925 256C68.6045 256.533 68.4605 257.141 68.4605 257.824C68.4605 258.507 68.6045 259.115 68.8925 259.648C69.1911 260.181 69.5911 260.597 70.0925 260.896C70.6045 261.195 71.1805 261.344 71.8205 261.344Z" fill="#2E3A59"/>
<path d="M107.817 262L107.801 252.416L103.113 260.512H102.713L98.0254 252.448V262H97.2254V250.8H97.9134L102.921 259.456L107.929 250.8H108.601L108.617 262H107.817ZM115.082 253.584C116.117 253.584 116.912 253.851 117.466 254.384C118.021 254.907 118.298 255.68 118.298 256.704V262H117.53V260.512C117.264 261.003 116.874 261.387 116.362 261.664C115.85 261.931 115.237 262.064 114.522 262.064C113.594 262.064 112.858 261.845 112.314 261.408C111.781 260.971 111.514 260.395 111.514 259.68C111.514 258.987 111.76 258.427 112.25 258C112.752 257.563 113.546 257.344 114.634 257.344H117.498V256.672C117.498 255.893 117.285 255.301 116.858 254.896C116.442 254.491 115.829 254.288 115.018 254.288C114.464 254.288 113.93 254.384 113.418 254.576C112.917 254.768 112.49 255.024 112.138 255.344L111.738 254.768C112.154 254.395 112.656 254.107 113.242 253.904C113.829 253.691 114.442 253.584 115.082 253.584ZM114.634 261.408C115.328 261.408 115.914 261.248 116.394 260.928C116.885 260.608 117.253 260.144 117.498 259.536V257.968H114.65C113.829 257.968 113.232 258.117 112.858 258.416C112.496 258.715 112.314 259.125 112.314 259.648C112.314 260.192 112.517 260.624 112.922 260.944C113.328 261.253 113.898 261.408 114.634 261.408ZM122.362 255.472C122.618 254.864 123.018 254.4 123.562 254.08C124.106 253.749 124.768 253.584 125.546 253.584V254.368L125.354 254.352C124.426 254.352 123.701 254.645 123.178 255.232C122.656 255.808 122.394 256.613 122.394 257.648V262H121.594V253.648H122.362V255.472Z" fill="#2E3A59"/>
<path d="M152.788 258.848H146.292L144.868 262H143.988L149.14 250.8H149.956L155.108 262H154.228L152.788 258.848ZM152.484 258.16L149.54 251.696L146.612 258.16H152.484ZM161.077 253.584C161.856 253.584 162.56 253.765 163.189 254.128C163.819 254.491 164.309 254.992 164.661 255.632C165.024 256.272 165.205 257.003 165.205 257.824C165.205 258.645 165.024 259.381 164.661 260.032C164.309 260.672 163.819 261.173 163.189 261.536C162.56 261.888 161.856 262.064 161.077 262.064C160.341 262.064 159.675 261.893 159.077 261.552C158.48 261.2 158.016 260.715 157.685 260.096V265.104H156.885V253.648H157.653V255.616C157.984 254.976 158.448 254.48 159.045 254.128C159.653 253.765 160.331 253.584 161.077 253.584ZM161.029 261.344C161.669 261.344 162.245 261.195 162.757 260.896C163.269 260.597 163.669 260.181 163.957 259.648C164.256 259.115 164.405 258.507 164.405 257.824C164.405 257.141 164.256 256.533 163.957 256C163.669 255.467 163.269 255.051 162.757 254.752C162.245 254.453 161.669 254.304 161.029 254.304C160.389 254.304 159.813 254.453 159.301 254.752C158.8 255.051 158.4 255.467 158.101 256C157.813 256.533 157.669 257.141 157.669 257.824C157.669 258.507 157.813 259.115 158.101 259.648C158.4 260.181 158.8 260.597 159.301 260.896C159.813 261.195 160.389 261.344 161.029 261.344ZM168.45 255.472C168.706 254.864 169.106 254.4 169.65 254.08C170.194 253.749 170.856 253.584 171.634 253.584V254.368L171.442 254.352C170.514 254.352 169.789 254.645 169.266 255.232C168.744 255.808 168.482 256.613 168.482 257.648V262H167.682V253.648H168.45V255.472Z" fill="#2E3A59"/>
<path d="M203.089 262L203.073 252.416L198.385 260.512H197.985L193.297 252.448V262H192.497V250.8H193.185L198.193 259.456L203.201 250.8H203.873L203.889 262H203.089ZM210.354 253.584C211.388 253.584 212.183 253.851 212.738 254.384C213.292 254.907 213.57 255.68 213.57 256.704V262H212.802V260.512C212.535 261.003 212.146 261.387 211.634 261.664C211.122 261.931 210.508 262.064 209.794 262.064C208.866 262.064 208.13 261.845 207.586 261.408C207.052 260.971 206.786 260.395 206.786 259.68C206.786 258.987 207.031 258.427 207.522 258C208.023 257.563 208.818 257.344 209.906 257.344H212.77V256.672C212.77 255.893 212.556 255.301 212.13 254.896C211.714 254.491 211.1 254.288 210.29 254.288C209.735 254.288 209.202 254.384 208.69 254.576C208.188 254.768 207.762 255.024 207.41 255.344L207.01 254.768C207.426 254.395 207.927 254.107 208.514 253.904C209.1 253.691 209.714 253.584 210.354 253.584ZM209.906 261.408C210.599 261.408 211.186 261.248 211.666 260.928C212.156 260.608 212.524 260.144 212.77 259.536V257.968H209.922C209.1 257.968 208.503 258.117 208.13 258.416C207.767 258.715 207.586 259.125 207.586 259.648C207.586 260.192 207.788 260.624 208.194 260.944C208.599 261.253 209.17 261.408 209.906 261.408ZM223.414 253.648L219.126 263.136C218.806 263.872 218.432 264.395 218.006 264.704C217.59 265.013 217.094 265.168 216.518 265.168C216.134 265.168 215.771 265.104 215.43 264.976C215.099 264.848 214.816 264.661 214.582 264.416L214.982 263.808C215.408 264.245 215.926 264.464 216.534 264.464C216.939 264.464 217.286 264.352 217.574 264.128C217.862 263.904 218.128 263.52 218.374 262.976L218.822 261.968L215.062 253.648H215.91L219.254 261.12L222.598 253.648H223.414Z" fill="#2E3A59"/>
<path d="M244.142 262.08C243.534 262.08 242.963 261.941 242.43 261.664C241.907 261.376 241.486 260.981 241.166 260.48L241.662 259.936C241.971 260.395 242.334 260.747 242.75 260.992C243.176 261.227 243.64 261.344 244.142 261.344C244.888 261.344 245.443 261.131 245.806 260.704C246.179 260.267 246.366 259.6 246.366 258.704V251.536H242.238V250.8H247.182V258.704C247.182 259.824 246.926 260.667 246.414 261.232C245.902 261.797 245.144 262.08 244.142 262.08ZM258.049 253.648V262H257.281V260.208C257.004 260.795 256.593 261.253 256.049 261.584C255.505 261.904 254.865 262.064 254.129 262.064C253.041 262.064 252.188 261.76 251.569 261.152C250.95 260.544 250.641 259.669 250.641 258.528V253.648H251.441V258.464C251.441 259.403 251.681 260.117 252.161 260.608C252.641 261.099 253.318 261.344 254.193 261.344C255.132 261.344 255.873 261.051 256.417 260.464C256.972 259.877 257.249 259.088 257.249 258.096V253.648H258.049ZM265.52 253.584C266.565 253.584 267.392 253.888 268 254.496C268.608 255.104 268.912 255.979 268.912 257.12V262H268.112V257.184C268.112 256.245 267.872 255.531 267.392 255.04C266.923 254.549 266.261 254.304 265.408 254.304C264.427 254.304 263.653 254.597 263.088 255.184C262.523 255.771 262.24 256.56 262.24 257.552V262H261.44V253.648H262.208V255.456C262.496 254.869 262.923 254.411 263.488 254.08C264.064 253.749 264.741 253.584 265.52 253.584Z" fill="#2E3A59"/>
<path d="M291.778 262.08C291.17 262.08 290.6 261.941 290.066 261.664C289.544 261.376 289.122 260.981 288.802 260.48L289.298 259.936C289.608 260.395 289.97 260.747 290.386 260.992C290.813 261.227 291.277 261.344 291.778 261.344C292.525 261.344 293.08 261.131 293.442 260.704C293.816 260.267 294.002 259.6 294.002 258.704V251.536H289.874V250.8H294.818V258.704C294.818 259.824 294.562 260.667 294.05 261.232C293.538 261.797 292.781 262.08 291.778 262.08ZM305.686 253.648V262H304.918V260.208C304.64 260.795 304.23 261.253 303.686 261.584C303.142 261.904 302.502 262.064 301.766 262.064C300.678 262.064 299.824 261.76 299.206 261.152C298.587 260.544 298.278 259.669 298.278 258.528V253.648H299.078V258.464C299.078 259.403 299.318 260.117 299.798 260.608C300.278 261.099 300.955 261.344 301.83 261.344C302.768 261.344 303.51 261.051 304.054 260.464C304.608 259.877 304.886 259.088 304.886 258.096V253.648H305.686ZM309.077 250.128H309.877V262H309.077V250.128Z" fill="#2E3A59"/>
<path d="M338.335 258.848H331.839L330.415 262H329.535L334.687 250.8H335.503L340.655 262H339.775L338.335 258.848ZM338.031 258.16L335.087 251.696L332.159 258.16H338.031ZM349.588 253.648V262H348.82V260.208C348.543 260.795 348.132 261.253 347.588 261.584C347.044 261.904 346.404 262.064 345.668 262.064C344.58 262.064 343.727 261.76 343.108 261.152C342.489 260.544 342.18 259.669 342.18 258.528V253.648H342.98V258.464C342.98 259.403 343.22 260.117 343.7 260.608C344.18 261.099 344.857 261.344 345.732 261.344C346.671 261.344 347.412 261.051 347.956 260.464C348.511 259.877 348.788 259.088 348.788 258.096V253.648H349.588ZM360.499 253.648V261.104C360.499 262.491 360.163 263.515 359.491 264.176C358.819 264.837 357.806 265.168 356.451 265.168C355.683 265.168 354.958 265.051 354.275 264.816C353.593 264.581 353.043 264.256 352.627 263.84L353.059 263.232C353.475 263.616 353.977 263.915 354.563 264.128C355.15 264.341 355.774 264.448 356.435 264.448C357.545 264.448 358.366 264.181 358.899 263.648C359.433 263.125 359.699 262.309 359.699 261.2V259.792C359.358 260.4 358.883 260.869 358.275 261.2C357.667 261.531 356.985 261.696 356.227 261.696C355.449 261.696 354.739 261.525 354.099 261.184C353.47 260.832 352.974 260.347 352.611 259.728C352.249 259.109 352.067 258.411 352.067 257.632C352.067 256.853 352.249 256.155 352.611 255.536C352.974 254.917 353.47 254.437 354.099 254.096C354.739 253.755 355.449 253.584 356.227 253.584C356.995 253.584 357.689 253.755 358.307 254.096C358.926 254.437 359.401 254.917 359.731 255.536V253.648H360.499ZM356.291 260.976C356.942 260.976 357.529 260.837 358.051 260.56C358.574 260.272 358.979 259.877 359.267 259.376C359.566 258.864 359.715 258.283 359.715 257.632C359.715 256.981 359.566 256.405 359.267 255.904C358.979 255.403 358.574 255.013 358.051 254.736C357.529 254.448 356.942 254.304 356.291 254.304C355.641 254.304 355.054 254.448 354.531 254.736C354.019 255.013 353.614 255.403 353.315 255.904C353.027 256.405 352.883 256.981 352.883 257.632C352.883 258.283 353.027 258.864 353.315 259.376C353.614 259.877 354.019 260.272 354.531 260.56C355.054 260.837 355.641 260.976 356.291 260.976Z" fill="white"/>
<path d="M384.988 262.08C384.166 262.08 383.382 261.941 382.636 261.664C381.9 261.376 381.324 261.008 380.908 260.56L381.276 259.952C381.67 260.368 382.198 260.709 382.86 260.976C383.532 261.232 384.236 261.36 384.972 261.36C386.038 261.36 386.844 261.157 387.388 260.752C387.932 260.347 388.204 259.819 388.204 259.168C388.204 258.667 388.06 258.267 387.772 257.968C387.484 257.669 387.126 257.44 386.7 257.28C386.273 257.12 385.697 256.955 384.972 256.784C384.15 256.581 383.489 256.384 382.988 256.192C382.497 256 382.076 255.707 381.724 255.312C381.382 254.907 381.212 254.368 381.212 253.696C381.212 253.152 381.356 252.656 381.644 252.208C381.932 251.749 382.369 251.387 382.956 251.12C383.553 250.853 384.294 250.72 385.18 250.72C385.798 250.72 386.406 250.811 387.004 250.992C387.601 251.173 388.118 251.419 388.556 251.728L388.252 252.384C387.804 252.075 387.308 251.84 386.764 251.68C386.23 251.52 385.702 251.44 385.18 251.44C384.145 251.44 383.361 251.648 382.828 252.064C382.294 252.48 382.028 253.019 382.028 253.68C382.028 254.181 382.172 254.581 382.46 254.88C382.748 255.179 383.105 255.408 383.532 255.568C383.958 255.728 384.54 255.899 385.276 256.08C386.097 256.283 386.753 256.48 387.244 256.672C387.734 256.864 388.15 257.157 388.492 257.552C388.844 257.936 389.02 258.459 389.02 259.12C389.02 259.664 388.87 260.16 388.572 260.608C388.284 261.056 387.836 261.413 387.228 261.68C386.62 261.947 385.873 262.08 384.988 262.08ZM398.594 258.016H391.41C391.431 258.667 391.596 259.248 391.906 259.76C392.215 260.261 392.631 260.651 393.154 260.928C393.687 261.205 394.284 261.344 394.946 261.344C395.49 261.344 395.991 261.248 396.45 261.056C396.919 260.853 397.308 260.56 397.618 260.176L398.082 260.704C397.719 261.141 397.26 261.477 396.706 261.712C396.162 261.947 395.57 262.064 394.93 262.064C394.098 262.064 393.356 261.883 392.706 261.52C392.055 261.157 391.543 260.656 391.17 260.016C390.807 259.376 390.626 258.645 390.626 257.824C390.626 257.013 390.796 256.288 391.138 255.648C391.49 254.997 391.97 254.491 392.578 254.128C393.186 253.765 393.868 253.584 394.626 253.584C395.383 253.584 396.06 253.765 396.658 254.128C397.266 254.48 397.74 254.976 398.082 255.616C398.434 256.256 398.61 256.981 398.61 257.792L398.594 258.016ZM394.626 254.288C394.039 254.288 393.511 254.421 393.042 254.688C392.572 254.944 392.194 255.312 391.906 255.792C391.628 256.261 391.468 256.795 391.426 257.392H397.826C397.794 256.795 397.634 256.261 397.346 255.792C397.058 255.323 396.679 254.955 396.21 254.688C395.74 254.421 395.212 254.288 394.626 254.288ZM405.277 253.584C406.055 253.584 406.759 253.765 407.389 254.128C408.018 254.491 408.509 254.992 408.861 255.632C409.223 256.272 409.405 257.003 409.405 257.824C409.405 258.645 409.223 259.381 408.861 260.032C408.509 260.672 408.018 261.173 407.389 261.536C406.759 261.888 406.055 262.064 405.277 262.064C404.541 262.064 403.874 261.893 403.277 261.552C402.679 261.2 402.215 260.715 401.885 260.096V265.104H401.085V253.648H401.853V255.616C402.183 254.976 402.647 254.48 403.245 254.128C403.853 253.765 404.53 253.584 405.277 253.584ZM405.229 261.344C405.869 261.344 406.445 261.195 406.957 260.896C407.469 260.597 407.869 260.181 408.157 259.648C408.455 259.115 408.605 258.507 408.605 257.824C408.605 257.141 408.455 256.533 408.157 256C407.869 255.467 407.469 255.051 406.957 254.752C406.445 254.453 405.869 254.304 405.229 254.304C404.589 254.304 404.013 254.453 403.501 254.752C402.999 255.051 402.599 255.467 402.301 256C402.013 256.533 401.869 257.141 401.869 257.824C401.869 258.507 402.013 259.115 402.301 259.648C402.599 260.181 402.999 260.597 403.501 260.896C404.013 261.195 404.589 261.344 405.229 261.344Z" fill="#2E3A59"/>
<path d="M435.431 262.08C434.332 262.08 433.34 261.835 432.455 261.344C431.569 260.843 430.871 260.16 430.359 259.296C429.857 258.432 429.607 257.467 429.607 256.4C429.607 255.333 429.857 254.368 430.359 253.504C430.871 252.64 431.569 251.963 432.455 251.472C433.34 250.971 434.332 250.72 435.431 250.72C436.529 250.72 437.521 250.965 438.407 251.456C439.292 251.947 439.985 252.624 440.487 253.488C440.999 254.352 441.255 255.323 441.255 256.4C441.255 257.477 440.999 258.448 440.487 259.312C439.985 260.176 439.292 260.853 438.407 261.344C437.521 261.835 436.529 262.08 435.431 262.08ZM435.431 261.328C436.369 261.328 437.217 261.115 437.975 260.688C438.732 260.261 439.329 259.675 439.767 258.928C440.204 258.171 440.423 257.328 440.423 256.4C440.423 255.472 440.204 254.635 439.767 253.888C439.329 253.131 438.732 252.539 437.975 252.112C437.217 251.685 436.369 251.472 435.431 251.472C434.492 251.472 433.639 251.685 432.871 252.112C432.113 252.539 431.516 253.131 431.079 253.888C430.641 254.635 430.423 255.472 430.423 256.4C430.423 257.328 430.641 258.171 431.079 258.928C431.516 259.675 432.113 260.261 432.871 260.688C433.639 261.115 434.492 261.328 435.431 261.328ZM447.141 262.064C446.33 262.064 445.605 261.883 444.965 261.52C444.325 261.157 443.823 260.656 443.461 260.016C443.098 259.365 442.917 258.635 442.917 257.824C442.917 257.003 443.098 256.272 443.461 255.632C443.823 254.981 444.325 254.48 444.965 254.128C445.605 253.765 446.33 253.584 447.141 253.584C447.813 253.584 448.421 253.717 448.965 253.984C449.519 254.24 449.967 254.619 450.309 255.12L449.717 255.552C449.418 255.136 449.045 254.827 448.597 254.624C448.159 254.411 447.674 254.304 447.141 254.304C446.49 254.304 445.903 254.453 445.381 254.752C444.869 255.04 444.463 255.451 444.165 255.984C443.877 256.517 443.733 257.131 443.733 257.824C443.733 258.517 443.877 259.131 444.165 259.664C444.463 260.197 444.869 260.613 445.381 260.912C445.903 261.2 446.49 261.344 447.141 261.344C447.674 261.344 448.159 261.243 448.597 261.04C449.045 260.827 449.418 260.512 449.717 260.096L450.309 260.528C449.967 261.029 449.519 261.413 448.965 261.68C448.421 261.936 447.813 262.064 447.141 262.064ZM456.942 261.472C456.739 261.664 456.483 261.813 456.174 261.92C455.875 262.016 455.56 262.064 455.23 262.064C454.504 262.064 453.944 261.867 453.55 261.472C453.155 261.067 452.958 260.507 452.958 259.792V254.336H451.422V253.648H452.958V251.824H453.758V253.648H456.414V254.336H453.758V259.712C453.758 260.256 453.886 260.672 454.142 260.96C454.408 261.237 454.798 261.376 455.31 261.376C455.832 261.376 456.264 261.221 456.606 260.912L456.942 261.472Z" fill="#2E3A59"/>
<path d="M486.435 250.8V262H485.763L478.131 252.272V262H477.315V250.8H478.003L485.619 260.528V250.8H486.435ZM493.355 262.064C492.565 262.064 491.851 261.883 491.211 261.52C490.581 261.157 490.085 260.656 489.723 260.016C489.36 259.365 489.179 258.635 489.179 257.824C489.179 257.013 489.36 256.288 489.723 255.648C490.085 254.997 490.581 254.491 491.211 254.128C491.851 253.765 492.565 253.584 493.355 253.584C494.144 253.584 494.853 253.765 495.483 254.128C496.123 254.491 496.624 254.997 496.987 255.648C497.349 256.288 497.531 257.013 497.531 257.824C497.531 258.635 497.349 259.365 496.987 260.016C496.624 260.656 496.123 261.157 495.483 261.52C494.853 261.883 494.144 262.064 493.355 262.064ZM493.355 261.344C493.995 261.344 494.565 261.195 495.067 260.896C495.579 260.597 495.979 260.181 496.267 259.648C496.565 259.115 496.715 258.507 496.715 257.824C496.715 257.141 496.565 256.533 496.267 256C495.979 255.467 495.579 255.051 495.067 254.752C494.565 254.453 493.995 254.304 493.355 254.304C492.715 254.304 492.139 254.453 491.627 254.752C491.125 255.051 490.725 255.467 490.427 256C490.139 256.533 489.995 257.141 489.995 257.824C489.995 258.507 490.139 259.115 490.427 259.648C490.725 260.181 491.125 260.597 491.627 260.896C492.139 261.195 492.715 261.344 493.355 261.344ZM506.482 253.648L502.706 262H501.89L498.13 253.648H498.978L502.306 261.12L505.666 253.648H506.482Z" fill="#2E3A59"/>
<path d="M526.952 250.8H531.384C532.547 250.8 533.576 251.04 534.472 251.52C535.379 252 536.083 252.667 536.584 253.52C537.085 254.363 537.336 255.323 537.336 256.4C537.336 257.477 537.085 258.443 536.584 259.296C536.083 260.139 535.379 260.8 534.472 261.28C533.576 261.76 532.547 262 531.384 262H526.952V250.8ZM531.32 261.264C532.355 261.264 533.267 261.061 534.056 260.656C534.845 260.24 535.453 259.664 535.88 258.928C536.307 258.192 536.52 257.349 536.52 256.4C536.52 255.451 536.307 254.608 535.88 253.872C535.453 253.136 534.845 252.565 534.056 252.16C533.267 251.744 532.355 251.536 531.32 251.536H527.768V261.264H531.32ZM546.971 258.016H539.787C539.808 258.667 539.973 259.248 540.283 259.76C540.592 260.261 541.008 260.651 541.531 260.928C542.064 261.205 542.661 261.344 543.323 261.344C543.867 261.344 544.368 261.248 544.827 261.056C545.296 260.853 545.685 260.56 545.995 260.176L546.459 260.704C546.096 261.141 545.637 261.477 545.083 261.712C544.539 261.947 543.947 262.064 543.307 262.064C542.475 262.064 541.733 261.883 541.083 261.52C540.432 261.157 539.92 260.656 539.547 260.016C539.184 259.376 539.003 258.645 539.003 257.824C539.003 257.013 539.173 256.288 539.515 255.648C539.867 254.997 540.347 254.491 540.955 254.128C541.563 253.765 542.245 253.584 543.003 253.584C543.76 253.584 544.437 253.765 545.035 254.128C545.643 254.48 546.117 254.976 546.459 255.616C546.811 256.256 546.987 256.981 546.987 257.792L546.971 258.016ZM543.003 254.288C542.416 254.288 541.888 254.421 541.419 254.688C540.949 254.944 540.571 255.312 540.283 255.792C540.005 256.261 539.845 256.795 539.803 257.392H546.203C546.171 256.795 546.011 256.261 545.723 255.792C545.435 255.323 545.056 254.955 544.587 254.688C544.117 254.421 543.589 254.288 543.003 254.288ZM552.774 262.064C551.963 262.064 551.238 261.883 550.598 261.52C549.958 261.157 549.456 260.656 549.094 260.016C548.731 259.365 548.55 258.635 548.55 257.824C548.55 257.003 548.731 256.272 549.094 255.632C549.456 254.981 549.958 254.48 550.598 254.128C551.238 253.765 551.963 253.584 552.774 253.584C553.446 253.584 554.054 253.717 554.598 253.984C555.152 254.24 555.6 254.619 555.942 255.12L555.35 255.552C555.051 255.136 554.678 254.827 554.23 254.624C553.792 254.411 553.307 254.304 552.774 254.304C552.123 254.304 551.536 254.453 551.014 254.752C550.502 255.04 550.096 255.451 549.798 255.984C549.51 256.517 549.366 257.131 549.366 257.824C549.366 258.517 549.51 259.131 549.798 259.664C550.096 260.197 550.502 260.613 551.014 260.912C551.536 261.2 552.123 261.344 552.774 261.344C553.307 261.344 553.792 261.243 554.23 261.04C554.678 260.827 555.051 260.512 555.35 260.096L555.942 260.528C555.6 261.029 555.152 261.413 554.598 261.68C554.054 261.936 553.446 262.064 552.774 262.064Z" fill="#2E3A59"/>
<path d="M2 164.977C2 164.977 81.9488 167.209 155.385 127.486C332.822 31.5076 329.751 168.269 413.599 143.482C483.197 122.908 557 65 557 65" stroke="#3366FF" stroke-width="2" stroke-linecap="round"/>
<path d="M2 165C2 165 96.4352 92.4718 163.856 92.2955C211.579 92.1708 246.591 159.887 292.216 145.99C339.193 131.68 336.704 73.9689 383.916 60.4435C422.291 49.4496 446.901 82.7623 486.216 78.8502C536.261 73.8704 557 42 557 42" stroke="#00D68F" stroke-width="2" stroke-linecap="round"/>
<circle cx="347" cy="89" r="5.5" fill="#00D68F" stroke="white"/>
<defs>
<filter id="filter0_b_1548_382" x="320" y="37" width="54" height="257" filterUnits="userSpaceOnUse" color-interpolation-filters="sRGB">
<feFlood flood-opacity="0" result="BackgroundImageFix"/>
<feGaussianBlur in="BackgroundImageFix" stdDeviation="2"/>
<feComposite in2="SourceAlpha" operator="in" result="effect1_backgroundBlur_1548_382"/>
<feBlend mode="normal" in="SourceGraphic" in2="effect1_backgroundBlur_1548_382" result="shape"/>
</filter>
<linearGradient id="paint0_linear_1548_382" x1="347" y1="173.515" x2="347" y2="41" gradientUnits="userSpaceOnUse">
<stop stop-color="#8791AB" stop-opacity="0.4"/>
<stop offset="1" stop-color="#8791AB" stop-opacity="0"/>
</linearGradient>
</defs>
</svg>
