<svg width="14" height="14" viewBox="0 0 14 14" fill="none" xmlns="http://www.w3.org/2000/svg">
<path d="M7.74991 7C7.74991 6.80109 7.67089 6.61032 7.53024 6.46967C7.38959 6.32902 7.19882 6.25 6.99991 6.25C6.801 6.25 6.61023 6.32902 6.46958 6.46967C6.32893 6.61032 6.24991 6.80109 6.24991 7C6.24991 7.19891 6.32893 7.38968 6.46958 7.53033C6.61023 7.67098 6.801 7.75 6.99991 7.75C7.19882 7.75 7.38959 7.67098 7.53024 7.53033C7.67089 7.38968 7.74991 7.19891 7.74991 7ZM4.62491 7C4.62491 6.80109 4.54589 6.61032 4.40524 6.46967C4.26459 6.32902 4.07382 6.25 3.87491 6.25C3.676 6.25 3.48523 6.32902 3.34458 6.46967C3.20393 6.61032 3.12491 6.80109 3.12491 7C3.12491 7.19891 3.20393 7.38968 3.34458 7.53033C3.48523 7.67098 3.676 7.75 3.87491 7.75C4.07382 7.75 4.26459 7.67098 4.40524 7.53033C4.54589 7.38968 4.62491 7.19891 4.62491 7ZM10.8749 7C10.8749 6.80109 10.7959 6.61032 10.6552 6.46967C10.5146 6.32902 10.3238 6.25 10.1249 6.25C9.926 6.25 9.73523 6.32902 9.59458 6.46967C9.45393 6.61032 9.37491 6.80109 9.37491 7C9.37491 7.19891 9.45393 7.38968 9.59458 7.53033C9.73523 7.67098 9.926 7.75 10.1249 7.75C10.3238 7.75 10.5146 7.67098 10.6552 7.53033C10.7959 7.38968 10.8749 7.19891 10.8749 7ZM0.543661 9.7125C0.896786 10.5516 1.40304 11.3047 2.04835 11.9516C2.68915 12.5947 3.44986 13.1059 4.28741 13.4562C5.14679 13.8172 6.05929 14 6.99991 14H7.03116C7.97804 13.9953 8.89522 13.8078 9.75772 13.4391C10.5881 13.0851 11.3417 12.573 11.9765 11.9313C12.6155 11.2859 13.1171 10.5359 13.464 9.7C13.8233 8.83437 14.0046 7.91406 13.9999 6.96719C13.9946 5.88208 13.7379 4.81296 13.2499 3.84375V1.46875C13.2499 1.27813 13.1742 1.09531 13.0394 0.960517C12.9046 0.825726 12.7218 0.75 12.5312 0.75H10.1546C9.18539 0.262018 8.11627 0.00530243 7.03116 0H6.99835C6.06241 0 5.1546 0.18125 4.29991 0.535937C3.46659 0.882109 2.70871 1.38736 2.06866 2.02344C1.42335 2.6625 0.915537 3.40938 0.560849 4.24219C0.1921 5.10469 0.00459862 6.02187 -8.86917e-05 6.96875C-0.004776 7.92031 0.179599 8.84375 0.543661 9.7125ZM2.9046 2.86875C3.99991 1.78437 5.45304 1.1875 6.99991 1.1875H7.02647C7.96866 1.19219 8.9046 1.42656 9.73116 1.86719L9.86241 1.9375H12.0624V4.1375L12.1327 4.26875C12.5733 5.09531 12.8077 6.03125 12.8124 6.97344C12.8187 8.53125 12.2233 9.99375 11.1312 11.0953C10.0405 12.1969 8.58272 12.8062 7.02491 12.8125H6.99835C6.2171 12.8125 5.45929 12.6609 4.74522 12.3609C4.04835 12.0688 3.42335 11.6484 2.88585 11.1109C2.34991 10.575 1.92804 9.94844 1.63585 9.25156C1.33272 8.52969 1.18116 7.76406 1.18429 6.97344C1.19366 5.41719 1.8046 3.95937 2.9046 2.86875Z" fill="#192A3E"/>
</svg>
